<svg xmlns="http://www.w3.org/2000/svg" xmlns:xlink="http://www.w3.org/1999/xlink" width="100" zoomAndPan="magnify" viewBox="0 0 257.25 143.249994" height="50" preserveAspectRatio="xMidYMid meet" version="1.0"><defs><clipPath id="09fff4294f"><path d="M 123 49.660156 L 215 49.660156 L 215 89 L 123 89 Z M 123 49.660156 " clip-rule="nonzero"/></clipPath><clipPath id="247274af87"><path d="M 37.792969 37.304688 L 115 37.304688 L 115 105 L 37.792969 105 Z M 37.792969 37.304688 " clip-rule="nonzero"/></clipPath></defs><g clip-path="url(#09fff4294f)"><path fill="#ffffff" d="M 123.359375 87.933594 L 123.359375 84.671875 L 143.492188 54.808594 L 123.140625 54.808594 L 123.140625 50.820312 L 148.890625 50.820312 L 148.890625 54.082031 L 128.757812 83.949219 L 149.109375 83.949219 L 149.109375 87.933594 Z M 164.351562 88.585938 C 162.578125 88.585938 160.964844 88.253906 159.519531 87.589844 C 158.074219 86.914062 156.925781 85.941406 156.074219 84.671875 C 155.222656 83.390625 154.796875 81.847656 154.796875 80.035156 C 154.796875 78.4375 155.113281 77.144531 155.746094 76.15625 C 156.378906 75.152344 157.222656 74.367188 158.28125 73.800781 C 159.335938 73.230469 160.503906 72.808594 161.78125 72.53125 C 163.070312 72.242188 164.363281 72.011719 165.664062 71.84375 C 167.367188 71.625 168.746094 71.460938 169.804688 71.351562 C 170.875 71.230469 171.652344 71.03125 172.136719 70.753906 C 172.636719 70.476562 172.886719 69.992188 172.886719 69.304688 L 172.886719 69.160156 C 172.886719 67.371094 172.394531 65.984375 171.40625 64.992188 C 170.4375 64 168.957031 63.507812 166.976562 63.507812 C 164.921875 63.507812 163.3125 63.953125 162.144531 64.847656 C 160.976562 65.742188 160.15625 66.695312 159.683594 67.710938 L 155.597656 66.261719 C 156.328125 64.570312 157.300781 63.253906 158.515625 62.308594 C 159.746094 61.355469 161.082031 60.691406 162.527344 60.316406 C 163.988281 59.929688 165.421875 59.738281 166.832031 59.738281 C 167.730469 59.738281 168.765625 59.84375 169.929688 60.0625 C 171.109375 60.269531 172.246094 60.695312 173.339844 61.347656 C 174.449219 62 175.367188 62.988281 176.09375 64.304688 C 176.824219 65.621094 177.1875 67.382812 177.1875 69.59375 L 177.1875 87.933594 L 172.886719 87.933594 L 172.886719 84.164062 L 172.667969 84.164062 C 172.375 84.769531 171.890625 85.414062 171.207031 86.105469 C 170.527344 86.792969 169.621094 87.378906 168.492188 87.863281 C 167.359375 88.347656 165.980469 88.585938 164.351562 88.585938 Z M 165.007812 84.746094 C 166.710938 84.746094 168.144531 84.414062 169.3125 83.75 C 170.492188 83.085938 171.378906 82.226562 171.972656 81.175781 C 172.582031 80.125 172.886719 79.019531 172.886719 77.859375 L 172.886719 73.945312 C 172.703125 74.160156 172.300781 74.359375 171.683594 74.542969 C 171.074219 74.710938 170.367188 74.863281 169.566406 74.996094 C 168.777344 75.117188 168.003906 75.226562 167.25 75.320312 C 166.507812 75.40625 165.90625 75.480469 165.445312 75.539062 C 164.328125 75.683594 163.28125 75.917969 162.308594 76.246094 C 161.347656 76.558594 160.570312 77.039062 159.976562 77.675781 C 159.390625 78.304688 159.101562 79.164062 159.101562 80.25 C 159.101562 81.738281 159.652344 82.859375 160.757812 83.621094 C 161.878906 84.371094 163.292969 84.746094 165.007812 84.746094 Z M 189.347656 50.820312 L 189.347656 87.933594 L 185.042969 87.933594 L 185.042969 50.820312 Z M 197.226562 87.933594 L 197.226562 60.097656 L 201.53125 60.097656 L 201.53125 87.933594 Z M 199.417969 55.460938 C 198.578125 55.460938 197.855469 55.175781 197.246094 54.609375 C 196.652344 54.039062 196.351562 53.355469 196.351562 52.558594 C 196.351562 51.761719 196.652344 51.078125 197.246094 50.511719 C 197.855469 49.945312 198.578125 49.660156 199.417969 49.660156 C 200.253906 49.660156 200.972656 49.945312 201.566406 50.511719 C 202.175781 51.078125 202.480469 51.761719 202.480469 52.558594 C 202.480469 53.355469 202.175781 54.039062 201.566406 54.609375 C 200.972656 55.175781 200.253906 55.460938 199.417969 55.460938 Z M 209.414062 87.933594 L 209.414062 60.097656 L 213.714844 60.097656 L 213.714844 87.933594 Z M 211.601562 55.460938 C 210.761719 55.460938 210.039062 55.175781 209.429688 54.609375 C 208.835938 54.039062 208.539062 53.355469 208.539062 52.558594 C 208.539062 51.761719 208.835938 51.078125 209.429688 50.511719 C 210.039062 49.945312 210.761719 49.660156 211.601562 49.660156 C 212.441406 49.660156 213.15625 49.945312 213.753906 50.511719 C 214.359375 51.078125 214.664062 51.761719 214.664062 52.558594 C 214.664062 53.355469 214.359375 54.039062 213.753906 54.609375 C 213.15625 55.175781 212.441406 55.460938 211.601562 55.460938 Z M 211.601562 55.460938 " fill-opacity="1" fill-rule="nonzero"/></g><g clip-path="url(#247274af87)"><path fill="#ffffff" d="M 75.621094 37.464844 C 74.703125 37.921875 71.015625 41.453125 69.300781 43.527344 C 69.269531 43.558594 68.878906 43.238281 68.421875 42.8125 C 66.367188 40.859375 63.808594 39.152344 61.15625 37.949219 C 60.117188 37.480469 59.875 37.433594 59.496094 37.617188 C 59.058594 37.820312 58.882812 38.203125 58.472656 39.851562 C 58.390625 40.207031 58.300781 40.535156 58.285156 40.585938 C 58.261719 40.648438 58.035156 40.59375 57.511719 40.40625 C 56.277344 39.957031 55.175781 39.636719 54.335938 39.46875 C 53.359375 39.28125 53.140625 39.28125 52.738281 39.464844 C 52.175781 39.722656 52.003906 40.335938 51.910156 42.410156 C 51.867188 43.308594 51.835938 43.496094 51.738281 43.535156 C 51.539062 43.597656 51.296875 44.027344 51.167969 44.523438 C 50.917969 45.53125 50.859375 46.332031 50.867188 48.703125 C 50.878906 53.175781 51.320312 56.519531 52.402344 60.363281 C 52.5625 60.925781 52.722656 61.480469 52.746094 61.601562 L 52.796875 61.8125 L 52.34375 61.578125 C 51.539062 61.175781 49.378906 60.339844 48.207031 59.984375 C 45.820312 59.253906 41.917969 58.699219 39.871094 58.796875 C 37.371094 58.910156 37.027344 59.222656 37.523438 60.941406 C 38.476562 64.269531 40.5 68.484375 42.597656 71.53125 C 44.839844 74.78125 47.417969 77.433594 50.007812 79.160156 C 51.867188 80.398438 53.8125 81.355469 55.84375 82.03125 L 57.042969 82.425781 L 56.296875 82.621094 C 54.359375 83.132812 51.359375 84.539062 49.425781 85.828125 C 46.507812 87.789062 43.726562 90.773438 42.128906 93.675781 C 41.066406 95.597656 40.371094 97.765625 40.453125 98.890625 C 40.515625 99.730469 41.089844 100.132812 42.894531 100.589844 C 48.078125 101.898438 53.875 101.359375 58.359375 99.148438 C 61.195312 97.75 63.292969 96.023438 65.066406 93.640625 C 65.359375 93.242188 65.625 92.910156 65.65625 92.894531 C 65.6875 92.886719 65.792969 93.144531 65.890625 93.464844 C 66.664062 95.964844 68.097656 98.210938 70.226562 100.285156 C 71.558594 101.585938 72.976562 102.617188 74.953125 103.75 C 76.203125 104.464844 76.242188 104.464844 77.417969 103.871094 C 80.804688 102.15625 83.199219 100.074219 85.125 97.1875 C 85.683594 96.34375 86.496094 94.753906 86.8125 93.882812 C 86.902344 93.625 87.003906 93.410156 87.03125 93.410156 C 87.054688 93.410156 87.199219 93.578125 87.34375 93.769531 C 88.09375 94.769531 89.699219 96.273438 91.019531 97.226562 C 93.566406 99.046875 97.230469 100.476562 100.566406 100.925781 C 104.378906 101.441406 107.1875 101.320312 110.53125 100.5 C 111.78125 100.195312 111.949219 100.121094 112.234375 99.777344 C 112.441406 99.535156 112.449219 99.519531 112.402344 98.765625 C 112.355469 97.953125 112.082031 96.816406 111.667969 95.691406 C 110.054688 91.328125 106.292969 87.289062 101.398438 84.644531 C 100.082031 83.9375 98.246094 83.132812 96.851562 82.667969 C 96.269531 82.472656 95.738281 82.289062 95.679688 82.265625 C 95.617188 82.242188 95.960938 82.089844 96.4375 81.925781 C 100.527344 80.511719 103.164062 78.855469 106.105469 75.855469 C 109.46875 72.40625 111.902344 68.226562 113.59375 62.945312 C 114.449219 60.289062 114.699219 58.765625 114.355469 58.386719 C 114.039062 58.039062 113.484375 57.847656 112.175781 57.664062 C 110.8125 57.46875 109.175781 57.550781 107.386719 57.902344 C 105.394531 58.296875 102.878906 59.464844 101.035156 60.863281 C 100.800781 61.046875 100.589844 61.199219 100.574219 61.199219 C 100.550781 61.199219 100.574219 61.085938 100.621094 60.949219 C 101.558594 57.984375 101.914062 56.117188 102.242188 52.5 C 102.5 49.695312 102.40625 45.128906 102.089844 44.371094 C 101.863281 43.839844 101.347656 43.695312 100.429688 43.90625 C 100.140625 43.976562 99.882812 44.027344 99.855469 44.027344 C 99.824219 44.027344 99.769531 43.421875 99.746094 42.675781 C 99.664062 40.433594 99.46875 39.613281 98.9375 39.257812 C 98.703125 39.097656 98.609375 39.082031 98.179688 39.113281 C 97.574219 39.167969 96.195312 39.613281 94.890625 40.183594 C 94.351562 40.414062 93.898438 40.601562 93.890625 40.585938 C 93.875 40.578125 93.785156 40.207031 93.679688 39.773438 C 93.207031 37.753906 92.835938 37.433594 91.601562 37.921875 C 90.59375 38.324219 88.503906 39.433594 87.269531 40.222656 C 86.085938 40.976562 84.34375 42.34375 83.304688 43.335938 C 83.128906 43.511719 82.964844 43.648438 82.941406 43.648438 C 82.917969 43.648438 82.660156 43.367188 82.371094 43.019531 C 81.023438 41.40625 79.136719 39.515625 77.460938 38.117188 C 76.523438 37.335938 76.152344 37.207031 75.621094 37.464844 Z M 79.167969 42.585938 C 81.273438 44.835938 82.3125 46.332031 83.601562 48.996094 C 84.167969 50.175781 84.765625 51.726562 84.765625 52.027344 C 84.765625 52.089844 84.433594 52.410156 84.03125 52.734375 C 83.265625 53.34375 81.054688 55.507812 80.234375 56.441406 L 79.78125 56.96875 L 78.992188 56.238281 C 78.039062 55.347656 76.878906 54.40625 76.53125 54.238281 C 76.175781 54.074219 75.863281 54.148438 75.332031 54.519531 C 74.796875 54.894531 73.644531 55.835938 72.871094 56.519531 L 72.300781 57.019531 L 72 56.664062 C 70.566406 54.960938 68.800781 53.167969 67.761719 52.339844 L 67.46875 52.105469 L 67.597656 51.597656 C 67.890625 50.410156 68.757812 48.519531 69.816406 46.757812 C 71.015625 44.757812 72.210938 43.34375 74.71875 40.976562 L 76.152344 39.621094 L 77.210938 40.632812 C 77.796875 41.179688 78.675781 42.0625 79.167969 42.585938 Z M 61.609375 40.320312 C 63.882812 41.582031 65.582031 42.796875 67.125 44.257812 C 67.492188 44.597656 67.863281 44.980469 67.945312 45.09375 L 68.105469 45.3125 L 67.671875 46.132812 C 67.429688 46.582031 67.226562 46.96875 67.210938 46.984375 C 67.195312 47.007812 66.703125 46.542969 66.105469 45.957031 C 64.339844 44.21875 62.65625 42.949219 60.617188 41.824219 C 60.4375 41.726562 60.292969 41.605469 60.292969 41.550781 C 60.292969 41.492188 60.359375 41.097656 60.445312 40.671875 C 60.527344 40.238281 60.59375 39.878906 60.59375 39.867188 C 60.59375 39.796875 60.996094 39.980469 61.609375 40.320312 Z M 91.933594 40.824219 C 92.003906 41.25 92.050781 41.613281 92.035156 41.628906 C 92.019531 41.644531 91.683594 41.8125 91.300781 42.007812 C 89.40625 42.957031 87.199219 44.507812 85.5625 46.035156 L 84.789062 46.757812 L 84.394531 46.09375 L 84 45.433594 L 84.707031 44.765625 C 86.351562 43.199219 89.09375 41.300781 91.15625 40.296875 C 91.488281 40.140625 91.777344 40.011719 91.785156 40.023438 C 91.792969 40.03125 91.859375 40.390625 91.933594 40.824219 Z M 54.746094 41.550781 C 56.351562 42.007812 58.0625 42.691406 59.722656 43.535156 C 61.851562 44.613281 63.324219 45.691406 65.058594 47.425781 C 66.074219 48.449219 66.285156 48.703125 66.253906 48.839844 C 66.234375 48.929688 66.082031 49.371094 65.921875 49.808594 L 65.632812 50.617188 L 64.566406 49.808594 C 61.4375 47.441406 58.4375 45.714844 55.238281 44.4375 L 53.925781 43.921875 L 53.925781 42.691406 C 53.925781 41.605469 53.949219 41.371094 54.054688 41.371094 C 54.070312 41.371094 54.382812 41.453125 54.746094 41.550781 Z M 97.761719 42.222656 C 97.785156 42.691406 97.800781 43.429688 97.785156 43.863281 L 97.761719 44.644531 L 96.929688 44.933594 C 94.964844 45.625 93.011719 46.558594 90.753906 47.886719 C 90.003906 48.328125 87.449219 50.039062 86.941406 50.433594 C 86.78125 50.554688 86.625 50.632812 86.59375 50.59375 C 86.5625 50.554688 86.488281 50.371094 86.433594 50.183594 C 86.382812 49.992188 86.214844 49.535156 86.070312 49.171875 C 85.753906 48.359375 85.753906 48.367188 86.617188 47.578125 C 88.804688 45.585938 91.050781 44.15625 94.316406 42.683594 C 95.558594 42.121094 97.40625 41.394531 97.625 41.378906 C 97.679688 41.371094 97.726562 41.652344 97.761719 42.222656 Z M 54.175781 46.238281 C 54.640625 46.414062 55.207031 46.636719 55.425781 46.734375 C 55.648438 46.832031 55.84375 46.914062 55.867188 46.914062 C 55.957031 46.914062 58.308594 48.125 59.042969 48.550781 C 61.851562 50.167969 65.597656 53.0625 68.15625 55.597656 C 69.074219 56.503906 70.75 58.378906 70.75 58.492188 C 70.75 58.523438 70.226562 59.117188 69.589844 59.816406 C 67.613281 61.988281 66.6875 63.152344 65.605469 64.808594 C 64.003906 67.246094 63.09375 69.675781 63.09375 71.5 L 63.09375 72.0625 L 62.664062 71.78125 C 61.050781 70.734375 59.40625 69.207031 58.335938 67.769531 C 56.390625 65.132812 54.601562 60.933594 53.820312 57.097656 C 53.660156 56.34375 53.34375 54.164062 53.28125 53.449219 C 53.261719 53.136719 53.222656 52.726562 53.199219 52.539062 C 53.140625 51.882812 53.015625 48.769531 53.015625 47.636719 C 53.015625 46.339844 53.0625 45.929688 53.214844 45.929688 C 53.273438 45.929688 53.707031 46.074219 54.175781 46.238281 Z M 100.203125 48.792969 C 100.097656 54.824219 99.558594 57.933594 97.90625 62.035156 C 97.140625 63.917969 95.816406 66.335938 94.785156 67.726562 C 94.195312 68.53125 92.527344 70.179688 91.664062 70.824219 C 91.003906 71.3125 89.835938 72.039062 89.535156 72.152344 C 89.425781 72.191406 89.40625 72.109375 89.359375 71.589844 C 89.261719 70.445312 89.054688 69.648438 88.496094 68.308594 C 87.441406 65.765625 85.503906 63.007812 82.554688 59.832031 C 82 59.238281 81.5 58.691406 81.449219 58.617188 C 81.355469 58.488281 81.417969 58.394531 82.023438 57.726562 C 84.8125 54.664062 88.964844 51.324219 92.535156 49.269531 C 94.292969 48.253906 96.980469 47.050781 98.710938 46.5 C 99.1875 46.347656 99.664062 46.195312 99.769531 46.15625 C 99.875 46.117188 100.027344 46.085938 100.105469 46.085938 C 100.242188 46.082031 100.246094 46.164062 100.203125 48.792969 Z M 76.820312 57.074219 C 80.644531 60.589844 83.117188 63.347656 85.003906 66.226562 C 87.480469 70.011719 87.675781 72.851562 85.675781 75.824219 C 84.539062 77.511719 82.730469 79.023438 80.546875 80.109375 C 79.03125 80.867188 77.902344 81.105469 76.015625 81.066406 C 74.289062 81.035156 73.179688 80.792969 71.847656 80.144531 C 67.929688 78.269531 65.269531 74.851562 65.277344 71.722656 C 65.285156 68.308594 68.113281 63.964844 73.765625 58.667969 C 74.667969 57.824219 75.558594 56.988281 75.75 56.816406 C 75.941406 56.632812 76.113281 56.488281 76.136719 56.488281 C 76.160156 56.488281 76.46875 56.753906 76.820312 57.074219 Z M 112.191406 59.984375 C 112.007812 61.167969 110.621094 65.285156 110.449219 65.179688 C 110.410156 65.15625 110.402344 65.1875 110.417969 65.242188 C 110.453125 65.339844 109.886719 66.667969 109.8125 66.667969 C 109.796875 66.667969 109.804688 66.617188 109.824219 66.539062 C 109.917969 66.3125 109.71875 66.5 109.621094 66.746094 C 109.5625 66.890625 109.46875 66.972656 109.378906 66.972656 C 109.257812 66.972656 109.234375 67.011719 109.265625 67.132812 C 109.289062 67.222656 109.289062 67.277344 109.265625 67.253906 C 109.226562 67.207031 109.136719 67.269531 108.855469 67.519531 C 108.78125 67.59375 108.683594 67.65625 108.644531 67.65625 C 108.605469 67.65625 108.582031 67.738281 108.589844 67.839844 C 108.621094 68.082031 108.453125 68.292969 108.265625 68.242188 C 108.179688 68.21875 108.121094 68.226562 108.128906 68.257812 C 108.136719 68.28125 108.113281 68.308594 108.082031 68.316406 C 108.046875 68.324219 107.960938 68.394531 107.894531 68.46875 C 107.824219 68.554688 107.703125 68.597656 107.621094 68.582031 C 107.539062 68.566406 107.5 68.582031 107.53125 68.636719 C 107.566406 68.691406 107.515625 68.71875 107.394531 68.71875 C 107.289062 68.71875 107.1875 68.75 107.167969 68.789062 C 107.144531 68.820312 107.039062 68.832031 106.929688 68.820312 C 106.78125 68.789062 106.726562 68.820312 106.660156 68.992188 C 106.605469 69.113281 106.558594 69.273438 106.550781 69.34375 C 106.539062 69.417969 106.53125 69.511719 106.523438 69.539062 C 106.515625 69.625 106.058594 69.554688 106.058594 69.472656 C 106.058594 69.433594 105.984375 69.402344 105.894531 69.402344 C 105.800781 69.402344 105.757812 69.382812 105.78125 69.351562 C 105.808594 69.328125 105.785156 69.25 105.726562 69.183594 C 105.558594 69 105.558594 68.964844 105.695312 68.855469 C 105.785156 68.789062 105.816406 68.703125 105.78125 68.582031 C 105.757812 68.46875 105.71875 68.4375 105.679688 68.492188 C 105.644531 68.554688 105.597656 68.539062 105.53125 68.453125 C 105.460938 68.371094 105.460938 68.339844 105.523438 68.339844 C 105.589844 68.339844 105.605469 68.171875 105.582031 67.769531 C 105.558594 67.457031 105.574219 67.199219 105.605469 67.199219 C 105.671875 67.199219 105.660156 66.851562 105.582031 66.773438 C 105.558594 66.753906 105.558594 66.683594 105.574219 66.628906 C 105.597656 66.578125 105.582031 66.507812 105.535156 66.480469 C 105.484375 66.449219 105.476562 66.488281 105.507812 66.570312 C 105.53125 66.644531 105.53125 66.683594 105.492188 66.652344 C 105.460938 66.625 105.378906 66.636719 105.316406 66.691406 C 105.226562 66.761719 105.234375 66.730469 105.332031 66.578125 C 105.421875 66.441406 105.507812 66.386719 105.589844 66.417969 C 105.703125 66.464844 105.703125 66.457031 105.613281 66.335938 C 105.550781 66.265625 105.535156 66.214844 105.574219 66.21875 C 105.613281 66.226562 105.710938 66.226562 105.792969 66.21875 C 105.914062 66.214844 105.921875 66.199219 105.832031 66.144531 C 105.773438 66.097656 105.695312 66.089844 105.652344 66.113281 C 105.613281 66.136719 105.605469 66.121094 105.636719 66.070312 C 105.664062 66.023438 105.726562 66.007812 105.773438 66.03125 C 105.824219 66.070312 105.839844 66.039062 105.808594 65.960938 C 105.785156 65.894531 105.832031 65.765625 105.914062 65.664062 C 106 65.566406 106.050781 65.535156 106.023438 65.582031 C 105.902344 65.832031 106.066406 65.636719 106.316406 65.242188 C 106.574219 64.835938 106.507812 64.875 106.1875 65.308594 C 106.113281 65.40625 106.074219 65.4375 106.105469 65.378906 C 106.195312 65.195312 106.824219 64.3125 106.871094 64.3125 C 106.894531 64.3125 106.863281 64.375 106.808594 64.441406 C 106.710938 64.5625 106.71875 64.570312 106.832031 64.480469 C 106.902344 64.417969 106.945312 64.335938 106.929688 64.289062 C 106.910156 64.238281 106.96875 64.117188 107.050781 64.007812 C 107.136719 63.902344 107.179688 63.871094 107.152344 63.933594 C 107.121094 63.996094 107.121094 64.023438 107.152344 63.996094 C 107.179688 63.972656 107.203125 63.933594 107.1875 63.917969 C 107.136719 63.851562 107.371094 63.554688 107.4375 63.597656 C 107.484375 63.628906 107.5 63.621094 107.476562 63.578125 C 107.339844 63.355469 109.484375 61.023438 110.332031 60.453125 C 110.757812 60.171875 111.976562 59.617188 112.207031 59.601562 C 112.226562 59.601562 112.21875 59.769531 112.191406 59.984375 Z M 107.816406 60.492188 C 106.203125 62.171875 104.984375 63.902344 102.648438 67.808594 C 100.769531 70.953125 100.035156 72.09375 99.140625 73.242188 C 98.339844 74.28125 96.9375 75.664062 95.980469 76.363281 C 95.308594 76.855469 95.109375 76.992188 94.34375 77.472656 C 93.792969 77.828125 91.875 78.785156 90.714844 79.304688 C 89.449219 79.863281 87.828125 80.425781 86.964844 80.609375 C 85.457031 80.929688 84.03125 81.011719 83.644531 80.800781 C 83.578125 80.769531 83.773438 80.585938 84.253906 80.246094 C 86.152344 78.894531 87.34375 77.546875 88.335938 75.648438 C 88.59375 75.15625 88.796875 74.859375 88.898438 74.828125 C 89.148438 74.753906 90.601562 74.007812 91.171875 73.660156 C 92.730469 72.707031 93.9375 71.765625 95.074219 70.621094 C 96.351562 69.328125 97.445312 67.824219 98.542969 65.832031 L 99.058594 64.882812 L 100.195312 63.949219 C 101.664062 62.734375 103.113281 61.769531 104.429688 61.121094 C 105.628906 60.539062 106.121094 60.355469 107.308594 60.050781 C 108.558594 59.738281 108.554688 59.734375 107.816406 60.492188 Z M 39.765625 61.085938 C 39.800781 61.054688 39.808594 61.085938 39.796875 61.144531 C 39.773438 61.199219 39.789062 61.328125 39.824219 61.433594 C 39.902344 61.617188 39.902344 61.617188 39.886719 61.394531 C 39.878906 61.265625 39.917969 61.160156 39.976562 61.136719 C 40.039062 61.113281 40.058594 61.136719 40.03125 61.191406 C 40 61.246094 40.015625 61.257812 40.082031 61.230469 C 40.21875 61.183594 40.808594 61.472656 41.53125 61.9375 C 42.128906 62.324219 43.871094 63.996094 43.796875 64.109375 C 43.773438 64.152344 43.78125 64.160156 43.824219 64.140625 C 43.941406 64.0625 45.25 65.484375 45.175781 65.605469 C 45.152344 65.636719 45.199219 65.710938 45.273438 65.765625 C 45.394531 65.863281 45.394531 65.855469 45.296875 65.71875 C 45.242188 65.636719 45.28125 65.664062 45.394531 65.78125 C 45.5 65.902344 45.570312 66.03125 45.546875 66.074219 C 45.515625 66.128906 45.53125 66.136719 45.578125 66.105469 C 45.660156 66.054688 45.847656 66.3125 45.773438 66.378906 C 45.757812 66.402344 45.804688 66.464844 45.871094 66.523438 C 46 66.625 46 66.625 45.894531 66.480469 C 45.78125 66.328125 45.78125 66.328125 45.957031 66.472656 C 46.046875 66.554688 46.105469 66.667969 46.09375 66.722656 C 46.070312 66.773438 46.09375 66.835938 46.136719 66.867188 C 46.191406 66.898438 46.199219 66.890625 46.167969 66.835938 C 46.136719 66.78125 46.128906 66.746094 46.152344 66.746094 C 46.167969 66.746094 46.554688 67.246094 47.007812 67.863281 C 48.101562 69.34375 48.523438 69.941406 48.296875 69.699219 C 48.136719 69.519531 48.105469 69.511719 48.023438 69.625 C 47.980469 69.691406 47.957031 69.699219 47.984375 69.640625 C 48.023438 69.554688 48.007812 69.539062 47.917969 69.578125 C 47.84375 69.601562 47.789062 69.59375 47.789062 69.546875 C 47.789062 69.503906 47.757812 69.488281 47.730469 69.511719 C 47.699219 69.523438 47.621094 69.519531 47.5625 69.472656 C 47.472656 69.417969 47.464844 69.402344 47.554688 69.402344 C 47.621094 69.402344 47.585938 69.335938 47.464844 69.222656 C 47.335938 69.101562 47.296875 69.023438 47.355469 69 C 47.441406 68.96875 47.457031 68.828125 47.417969 68.476562 C 47.410156 68.4375 47.363281 68.421875 47.320312 68.4375 C 47.265625 68.445312 47.226562 68.417969 47.234375 68.363281 C 47.25 68.308594 47.214844 68.285156 47.160156 68.308594 C 47.09375 68.332031 47.070312 68.429688 47.09375 68.566406 C 47.128906 68.8125 47.03125 68.863281 46.878906 68.683594 C 46.804688 68.589844 46.804688 68.566406 46.886719 68.558594 C 46.964844 68.558594 46.972656 68.546875 46.894531 68.515625 C 46.847656 68.5 46.820312 68.445312 46.847656 68.410156 C 46.871094 68.371094 46.847656 68.339844 46.8125 68.339844 C 46.765625 68.339844 46.726562 68.378906 46.726562 68.429688 C 46.726562 68.476562 46.675781 68.453125 46.605469 68.371094 C 46.492188 68.234375 46.492188 68.242188 46.53125 68.484375 L 46.578125 68.742188 L 46.226562 68.371094 C 45.933594 68.066406 45.828125 68.007812 45.5625 67.992188 C 45.394531 67.976562 45.234375 67.96875 45.210938 67.960938 C 45.191406 67.960938 45.226562 67.921875 45.289062 67.882812 C 45.371094 67.832031 45.304688 67.808594 45.039062 67.808594 C 44.832031 67.808594 44.691406 67.777344 44.710938 67.738281 C 44.765625 67.65625 44.582031 67.582031 44.304688 67.582031 C 44.089844 67.582031 43.742188 67.4375 43.710938 67.328125 C 43.703125 67.300781 43.699219 67.246094 43.699219 67.207031 C 43.699219 67.171875 43.574219 67.117188 43.433594 67.09375 C 43.144531 67.042969 43.136719 66.859375 43.417969 66.796875 C 43.507812 66.773438 43.402344 66.761719 43.183594 66.765625 C 42.855469 66.773438 42.765625 66.746094 42.667969 66.609375 C 42.597656 66.507812 42.507812 66.464844 42.460938 66.488281 C 42.410156 66.515625 42.394531 66.515625 42.425781 66.480469 C 42.453125 66.449219 42.425781 66.371094 42.363281 66.3125 C 42.304688 66.25 42.273438 66.167969 42.296875 66.128906 C 42.324219 66.089844 42.3125 66.0625 42.265625 66.0625 C 42.1875 66.0625 42.074219 65.800781 42.066406 65.628906 C 42.066406 65.582031 41.96875 65.453125 41.855469 65.347656 C 41.742188 65.242188 41.613281 65.066406 41.574219 64.960938 C 41.539062 64.851562 41.453125 64.769531 41.386719 64.769531 C 41.242188 64.769531 41.242188 64.792969 41.433594 65.15625 C 41.515625 65.332031 41.574219 65.484375 41.554688 65.5 C 41.492188 65.558594 40.582031 63.53125 40.621094 63.425781 C 40.644531 63.363281 40.636719 63.332031 40.597656 63.355469 C 40.507812 63.417969 40.257812 62.824219 40.324219 62.710938 C 40.363281 62.65625 40.355469 62.632812 40.308594 62.664062 C 40.265625 62.695312 40.121094 62.429688 39.960938 62.011719 C 39.734375 61.394531 39.53125 60.765625 39.652344 61.03125 C 39.671875 61.078125 39.726562 61.109375 39.765625 61.085938 Z M 44.226562 61.121094 C 46.707031 61.441406 49.765625 62.445312 52.488281 63.820312 C 54.152344 64.65625 54.03125 64.558594 54.472656 65.414062 C 56.578125 69.519531 59.09375 72.214844 62.589844 74.105469 C 63.453125 74.578125 63.851562 74.882812 63.851562 75.054688 C 63.851562 75.230469 64.480469 76.445312 64.898438 77.078125 C 65.375 77.796875 66.984375 79.46875 67.832031 80.125 L 68.355469 80.535156 L 67.753906 80.585938 C 65.929688 80.746094 63.324219 80.039062 60.511719 78.632812 C 58.101562 77.425781 56.238281 76.074219 54.304688 74.121094 C 52.988281 72.800781 51.746094 71.304688 49.472656 68.28125 C 47.121094 65.171875 45.933594 63.742188 44.410156 62.222656 C 43.402344 61.222656 43.21875 61 43.386719 61.023438 C 43.492188 61.03125 43.871094 61.078125 44.226562 61.121094 Z M 41.832031 66.039062 C 41.902344 66.175781 41.9375 66.289062 41.925781 66.289062 C 41.878906 66.289062 41.652344 65.871094 41.652344 65.789062 C 41.652344 65.703125 41.6875 65.765625 41.832031 66.039062 Z M 42.316406 67.011719 C 42.296875 67.035156 42.25 66.996094 42.226562 66.917969 C 42.183594 66.8125 42.1875 66.804688 42.265625 66.875 C 42.316406 66.925781 42.339844 66.988281 42.316406 67.011719 Z M 105.273438 66.910156 C 105.300781 66.964844 105.292969 66.988281 105.265625 66.949219 C 105.226562 66.917969 105.136719 66.988281 105.058594 67.101562 C 104.984375 67.222656 104.921875 67.285156 104.921875 67.253906 C 104.921875 67.191406 105.152344 66.820312 105.195312 66.820312 C 105.203125 66.820312 105.242188 66.867188 105.273438 66.910156 Z M 109.628906 67.070312 C 109.554688 67.140625 109.546875 67.132812 109.589844 67.027344 C 109.613281 66.949219 109.660156 66.910156 109.683594 66.933594 C 109.703125 66.957031 109.683594 67.019531 109.628906 67.070312 Z M 42.523438 67.351562 C 42.589844 67.472656 42.621094 67.582031 42.605469 67.582031 C 42.582031 67.582031 42.515625 67.472656 42.445312 67.351562 C 42.378906 67.222656 42.347656 67.125 42.363281 67.125 C 42.386719 67.125 42.453125 67.222656 42.523438 67.351562 Z M 43.597656 67.246094 C 43.574219 67.269531 43.507812 67.277344 43.453125 67.253906 C 43.394531 67.230469 43.417969 67.207031 43.5 67.207031 C 43.582031 67.199219 43.628906 67.222656 43.597656 67.246094 Z M 44.742188 67.9375 C 44.667969 67.953125 44.546875 67.953125 44.476562 67.9375 C 44.402344 67.914062 44.460938 67.898438 44.605469 67.898438 C 44.75 67.898438 44.8125 67.914062 44.742188 67.9375 Z M 108.710938 68.796875 C 108.667969 68.878906 108.613281 68.949219 108.589844 68.949219 C 108.574219 68.949219 108.589844 68.878906 108.636719 68.796875 C 108.683594 68.710938 108.734375 68.644531 108.757812 68.644531 C 108.773438 68.644531 108.757812 68.710938 108.710938 68.796875 Z M 47.335938 68.832031 C 47.410156 68.925781 47.410156 68.949219 47.320312 68.949219 C 47.257812 68.949219 47.207031 68.894531 47.207031 68.832031 C 47.207031 68.773438 47.214844 68.71875 47.222656 68.71875 C 47.234375 68.71875 47.28125 68.773438 47.335938 68.832031 Z M 49.160156 70.824219 C 49.257812 70.945312 49.25 70.953125 49.136719 70.855469 C 49.007812 70.757812 48.972656 70.695312 49.03125 70.695312 C 49.046875 70.695312 49.109375 70.757812 49.160156 70.824219 Z M 49.464844 71.203125 C 49.5625 71.324219 49.554688 71.332031 49.441406 71.234375 C 49.367188 71.179688 49.304688 71.121094 49.304688 71.105469 C 49.304688 71.042969 49.367188 71.082031 49.464844 71.203125 Z M 49.691406 71.507812 C 49.789062 71.628906 49.78125 71.636719 49.667969 71.539062 C 49.539062 71.441406 49.5 71.378906 49.5625 71.378906 C 49.578125 71.378906 49.636719 71.441406 49.691406 71.507812 Z M 49.917969 71.8125 C 50.015625 71.933594 50.007812 71.941406 49.894531 71.84375 C 49.820312 71.789062 49.757812 71.726562 49.757812 71.714844 C 49.757812 71.652344 49.820312 71.691406 49.917969 71.8125 Z M 50.980469 73.179688 C 51.078125 73.300781 51.070312 73.308594 50.957031 73.210938 C 50.878906 73.15625 50.820312 73.097656 50.820312 73.082031 C 50.820312 73.019531 50.878906 73.058594 50.980469 73.179688 Z M 50.980469 73.179688 " fill-opacity="1" fill-rule="nonzero"/></g></svg>