<svg width="55" height="48" viewBox="0 0 55 48" fill="none" xmlns="http://www.w3.org/2000/svg">
<path d="M26.8125 0.113293C26.1626 0.435558 23.5469 2.93312 22.333 4.39943C22.3115 4.42091 22.0322 4.19532 21.71 3.89454C20.2544 2.51417 18.439 1.30568 16.5591 0.457043C15.8232 0.124035 15.6514 0.0918083 15.3828 0.220715C15.0713 0.365734 14.9478 0.634289 14.6577 1.79982C14.5986 2.05226 14.5342 2.28321 14.5234 2.32081C14.5073 2.36378 14.3462 2.32618 13.9756 2.19191C13.1001 1.87501 12.3213 1.64943 11.7251 1.53126C11.0322 1.39698 10.8765 1.39698 10.5918 1.52589C10.1943 1.70851 10.0708 2.14357 10.0063 3.60987C9.97412 4.24366 9.95264 4.37794 9.88281 4.4048C9.74317 4.44777 9.57129 4.75392 9.47998 5.10304C9.30274 5.81739 9.25977 6.38136 9.26514 8.05714C9.27588 11.2207 9.5874 13.584 10.3555 16.3018C10.4683 16.6992 10.5811 17.0913 10.5972 17.1773L10.6348 17.3277L10.3125 17.1611C9.74316 16.8765 8.2124 16.2857 7.37988 16.0332C5.68799 15.5176 2.92188 15.1255 1.47168 15.1953C-0.300781 15.2759 -0.54248 15.4961 -0.193359 16.71C0.483399 19.0625 1.91748 22.0435 3.40527 24.1973C4.99512 26.4961 6.82129 28.3706 8.6582 29.5899C9.97412 30.4653 11.3545 31.1421 12.7939 31.6201L13.6426 31.8994L13.1162 32.0391C11.7412 32.3989 9.61426 33.3926 8.24463 34.3057C6.17676 35.6914 4.20557 37.8023 3.07227 39.854C2.32031 41.2129 1.82617 42.7437 1.88525 43.5386C1.92822 44.1348 2.33643 44.4194 3.61475 44.7417C7.28857 45.6655 11.3975 45.2842 14.5772 43.7212C16.5859 42.7329 18.0737 41.5137 19.3306 39.8272C19.54 39.5479 19.728 39.3115 19.7495 39.3008C19.771 39.2954 19.8462 39.478 19.916 39.7036C20.4639 41.4707 21.479 43.0606 22.9883 44.5269C23.9336 45.4453 24.938 46.1758 26.3398 46.9761C27.2261 47.481 27.2529 47.481 28.0855 47.062C30.4863 45.8482 32.1836 44.3765 33.5479 42.3355C33.9453 41.7393 34.52 40.6167 34.7456 39.999C34.8101 39.8164 34.8799 39.666 34.9014 39.666C34.9175 39.666 35.0195 39.7842 35.1216 39.9185C35.6533 40.6275 36.792 41.6909 37.7266 42.3623C39.5313 43.6514 42.1309 44.6611 44.4941 44.978C47.1958 45.3433 49.1885 45.2573 51.5571 44.6773C52.4434 44.4624 52.5615 44.4087 52.7656 44.167C52.9106 43.9951 52.916 43.9844 52.8838 43.4526C52.8516 42.8779 52.6582 42.0723 52.3628 41.2774C51.2188 38.1943 48.5547 35.3369 45.085 33.4678C44.1504 32.9683 42.8506 32.3989 41.8623 32.0713C41.4487 31.9317 41.0728 31.8027 41.0298 31.7866C40.9868 31.7705 41.2285 31.6631 41.5669 31.5449C44.4673 30.5459 46.3364 29.375 48.4204 27.2534C50.8052 24.815 52.5293 21.8609 53.7271 18.1279C54.334 16.2481 54.5112 15.1738 54.2695 14.9053C54.0439 14.6582 53.6519 14.5239 52.7227 14.395C51.7559 14.2554 50.5957 14.3145 49.3281 14.5615C47.9155 14.8408 46.1323 15.668 44.8272 16.6563C44.6606 16.7852 44.5103 16.8926 44.4995 16.8926C44.4834 16.8926 44.4995 16.812 44.5317 16.7153C45.1978 14.6206 45.4502 13.2993 45.6812 10.7427C45.8638 8.76075 45.7993 5.53273 45.5737 4.99562C45.4126 4.61964 45.0474 4.51759 44.3975 4.66798C44.1934 4.71632 44.0107 4.75392 43.9893 4.75392C43.9678 4.75392 43.9302 4.32423 43.9141 3.79786C43.855 2.21339 43.7153 1.63331 43.3394 1.38087C43.1729 1.26808 43.1084 1.25734 42.8022 1.27882C42.3726 1.31642 41.395 1.63331 40.4712 2.03614C40.0898 2.19728 39.7676 2.33155 39.7622 2.32081C39.7515 2.31544 39.687 2.05226 39.6118 1.74611C39.2788 0.317394 39.0156 0.0918083 38.1401 0.435558C37.4258 0.720226 35.9434 1.50441 35.0679 2.063C34.23 2.59474 32.9946 3.56153 32.2588 4.26515C32.1353 4.38868 32.0171 4.48536 32.001 4.48536C31.9849 4.48536 31.8022 4.28663 31.5981 4.03956C30.6421 2.90089 29.3047 1.56349 28.1177 0.575207C27.4517 0.0219841 27.1885 -0.0693245 26.8125 0.113293ZM29.3262 3.73341C30.8193 5.32325 31.5552 6.38136 32.4683 8.26661C32.8711 9.09913 33.2954 10.1948 33.2954 10.4097C33.2954 10.4526 33.0591 10.6782 32.7744 10.9092C32.2319 11.3389 30.6636 12.8696 30.0835 13.5303L29.7612 13.9009L29.2026 13.3853C28.5259 12.7568 27.7041 12.0908 27.457 11.9727C27.2046 11.8545 26.9844 11.9082 26.6084 12.1714C26.2271 12.4346 25.4106 13.1006 24.8628 13.584L24.46 13.9385L24.2451 13.686C23.23 12.4829 21.9785 11.2153 21.2427 10.6299L21.0332 10.4634L21.1245 10.1035C21.334 9.26564 21.9463 7.92823 22.6982 6.68214C23.5469 5.26954 24.3955 4.27052 26.1733 2.59474L27.1885 1.63868L27.9404 2.35304C28.354 2.73976 28.9771 3.3628 29.3262 3.73341ZM16.8813 2.13282C18.4927 3.02443 19.6958 3.8838 20.7915 4.91505C21.0493 5.15675 21.3125 5.4253 21.3716 5.50587L21.4844 5.66163L21.1782 6.24171C21.0063 6.55861 20.8613 6.83253 20.8506 6.84327C20.8398 6.85939 20.4907 6.53175 20.0664 6.11818C18.8149 4.8882 17.6226 3.99122 16.1777 3.1963C16.0488 3.12648 15.9468 3.04054 15.9468 3.00294C15.9468 2.95997 15.9951 2.68068 16.0542 2.37989C16.1133 2.07374 16.1616 1.8213 16.1616 1.81056C16.1616 1.76222 16.4463 1.89112 16.8813 2.13282ZM38.3765 2.48732C38.4248 2.7881 38.457 3.04591 38.4463 3.05665C38.4356 3.06739 38.1992 3.18556 37.9253 3.32521C36.5825 3.99659 35.0195 5.0923 33.8594 6.17189L33.3115 6.68214L33.0322 6.21486L32.7529 5.74757L33.2524 5.27491C34.418 4.16847 36.3623 2.8257 37.8232 2.11671C38.0596 2.00392 38.2637 1.91261 38.269 1.92335C38.2744 1.92872 38.3228 2.18116 38.3765 2.48732ZM12.0151 3.00294C13.1538 3.32521 14.3677 3.80861 15.5439 4.4048C17.0532 5.16749 18.0952 5.93019 19.3252 7.1548C20.0449 7.87989 20.1953 8.05714 20.1738 8.15382C20.1577 8.21827 20.0503 8.5298 19.9375 8.84132L19.7334 9.41066L18.9761 8.84132C16.7578 7.16554 14.6309 5.9463 12.3643 5.04396L11.4351 4.67872V3.80861C11.4351 3.04054 11.4512 2.87403 11.5264 2.87403C11.5371 2.87403 11.7573 2.93312 12.0151 3.00294ZM42.5068 3.4756C42.523 3.80861 42.5337 4.3296 42.523 4.63575L42.5068 5.18898L41.916 5.39308C40.5249 5.88185 39.1392 6.54249 37.5386 7.48243C37.0068 7.79396 35.1968 9.00245 34.8369 9.28175C34.7241 9.36769 34.6113 9.4214 34.5898 9.39454C34.5684 9.36769 34.5147 9.23878 34.4771 9.1045C34.4395 8.97023 34.3213 8.64796 34.2192 8.39015C33.9937 7.81544 33.9937 7.82081 34.606 7.26222C36.1582 5.85499 37.7481 4.84523 40.063 3.80323C40.9439 3.40577 42.2544 2.89015 42.4102 2.87941C42.4478 2.87403 42.48 3.07277 42.5068 3.4756ZM11.6123 6.31691C11.9399 6.44044 12.3428 6.5962 12.4985 6.66603C12.6543 6.73585 12.7939 6.79493 12.8101 6.79493C12.8745 6.79493 14.5396 7.64894 15.0605 7.94972C17.0532 9.09376 19.7065 11.1401 21.522 12.9341C22.1719 13.5733 23.3589 14.8999 23.3589 14.9805C23.3589 15.002 22.9883 15.4209 22.5371 15.9151C21.1353 17.4512 20.48 18.273 19.7119 19.4439C18.5786 21.168 17.9341 22.8867 17.9341 24.1758V24.5733L17.6279 24.3745C16.4839 23.6333 15.3184 22.5537 14.561 21.5386C13.1807 19.6748 11.9131 16.7046 11.3599 13.9922C11.2471 13.4605 11.0215 11.919 10.9785 11.4141C10.9624 11.1939 10.9355 10.9038 10.9194 10.7695C10.8765 10.3076 10.7905 8.10548 10.7905 7.30519C10.7905 6.38673 10.8228 6.09669 10.9302 6.09669C10.9731 6.09669 11.2793 6.19874 11.6123 6.31691ZM44.2363 8.12159C44.1611 12.3862 43.7798 14.583 42.6089 17.4834C42.0664 18.8154 41.1265 20.5235 40.396 21.5064C39.9771 22.0757 38.7954 23.2412 38.1831 23.6978C37.7158 24.0415 36.8887 24.5571 36.6738 24.6377C36.5986 24.6646 36.5825 24.6055 36.5503 24.2402C36.4805 23.4292 36.3355 22.8652 35.938 21.9199C35.1914 20.1206 33.8164 18.1709 31.7271 15.9258C31.335 15.5068 30.9805 15.1201 30.9429 15.0664C30.8784 14.9751 30.9214 14.9107 31.3511 14.438C33.3276 12.2734 36.271 9.91017 38.8008 8.45997C40.0469 7.74025 41.9536 6.89161 43.1782 6.49952C43.5166 6.3921 43.855 6.28468 43.9302 6.25782C44.0054 6.23097 44.1128 6.20948 44.1665 6.20948C44.2632 6.20411 44.2686 6.2632 44.2363 8.12159ZM27.6611 13.9761C30.3735 16.4629 32.1245 18.4126 33.4619 20.4483C35.2183 23.1231 35.3579 25.1318 33.9399 27.2319C33.1343 28.4243 31.8506 29.4932 30.3037 30.2612C29.2295 30.7984 28.4292 30.9649 27.0918 30.938C25.8672 30.9165 25.083 30.7446 24.1377 30.2881C21.3608 28.9614 19.4756 26.5444 19.481 24.3316C19.4863 21.9199 21.4897 18.8477 25.4966 15.104C26.1357 14.5078 26.7695 13.917 26.9038 13.7935C27.0381 13.6646 27.1616 13.5625 27.1777 13.5625C27.1939 13.5625 27.4141 13.7505 27.6611 13.9761ZM52.7334 16.0332C52.6045 16.8711 51.6216 19.7822 51.4981 19.707C51.4712 19.6909 51.4658 19.7124 51.4766 19.75C51.5034 19.8198 51.1006 20.7598 51.0469 20.7598C51.0361 20.7598 51.0415 20.7222 51.0576 20.6685C51.1221 20.5073 50.9824 20.6416 50.9126 20.8135C50.8696 20.9155 50.8052 20.9746 50.7407 20.9746C50.6548 20.9746 50.6387 21.0015 50.6602 21.0874C50.6763 21.1519 50.6763 21.1895 50.6602 21.1734C50.6333 21.1411 50.5689 21.1841 50.3701 21.3613C50.3164 21.4151 50.2466 21.458 50.2197 21.458C50.1929 21.458 50.1768 21.5171 50.1821 21.5869C50.2036 21.7588 50.0855 21.9092 49.9512 21.8716C49.8921 21.8555 49.8491 21.8609 49.8545 21.8823C49.8599 21.8985 49.8438 21.9199 49.8223 21.9253C49.7954 21.9307 49.7363 21.979 49.688 22.0327C49.6397 22.0918 49.5537 22.124 49.4946 22.1133C49.4356 22.1026 49.4087 22.1133 49.4302 22.1509C49.457 22.1885 49.4194 22.21 49.3335 22.21C49.2583 22.21 49.1885 22.2315 49.1724 22.2583C49.1563 22.2798 49.0811 22.2905 49.0059 22.2798C48.8984 22.2583 48.8608 22.2798 48.8125 22.4033C48.7749 22.4893 48.7427 22.6021 48.7373 22.6504C48.7266 22.7041 48.7212 22.7686 48.7158 22.7901C48.7105 22.8491 48.3882 22.8008 48.3882 22.7417C48.3882 22.7149 48.3345 22.6934 48.27 22.6934C48.2056 22.6934 48.1733 22.6773 48.1895 22.6558C48.2109 22.6397 48.1948 22.586 48.1519 22.5376C48.0337 22.4087 48.0337 22.3818 48.1304 22.3067C48.1948 22.2583 48.2163 22.1992 48.1895 22.1133C48.1733 22.0327 48.1465 22.0112 48.1196 22.0488C48.0928 22.0918 48.0606 22.0811 48.0122 22.022C47.9639 21.9629 47.9639 21.9414 48.0068 21.9414C48.0552 21.9414 48.0659 21.8233 48.0498 21.5386C48.0337 21.3184 48.0444 21.1358 48.0659 21.1358C48.1143 21.1358 48.1035 20.8887 48.0498 20.835C48.0337 20.8189 48.0337 20.7705 48.0444 20.7329C48.0606 20.6953 48.0498 20.647 48.0176 20.6255C47.98 20.604 47.9746 20.6309 47.9961 20.69C48.0122 20.7437 48.0122 20.7705 47.9854 20.749C47.9639 20.7276 47.9048 20.7383 47.8618 20.7759C47.7974 20.8242 47.8027 20.8027 47.8726 20.6953C47.937 20.5986 47.9961 20.561 48.0552 20.5825C48.1357 20.6148 48.1357 20.6094 48.0713 20.5235C48.0283 20.4751 48.0176 20.4375 48.0444 20.4429C48.0713 20.4483 48.1411 20.4483 48.2002 20.4429C48.2861 20.4375 48.2915 20.4268 48.2271 20.3892C48.1841 20.3569 48.1304 20.3516 48.0981 20.3677C48.0713 20.3838 48.0659 20.3731 48.0874 20.3355C48.1089 20.3032 48.1519 20.2925 48.1841 20.3086C48.2217 20.3355 48.2324 20.314 48.2109 20.2603C48.1948 20.2119 48.2271 20.1206 48.2861 20.0508C48.3452 19.981 48.3828 19.9595 48.3613 19.9917C48.2754 20.169 48.3936 20.0293 48.5708 19.75C48.7534 19.4653 48.7051 19.4922 48.4795 19.7984C48.4258 19.8682 48.3989 19.8897 48.4204 19.8467C48.4849 19.7178 48.9307 19.0947 48.9629 19.0947C48.979 19.0947 48.9575 19.1377 48.9199 19.186C48.8501 19.272 48.8555 19.2774 48.936 19.2129C48.9844 19.1699 49.0166 19.1109 49.0059 19.0786C48.9897 19.041 49.0327 18.9551 49.0918 18.8799C49.1509 18.8047 49.1831 18.7832 49.1616 18.8262C49.1401 18.8692 49.1401 18.8906 49.1616 18.8692C49.1831 18.853 49.1992 18.8262 49.1885 18.8154C49.1509 18.7671 49.3174 18.5576 49.3657 18.5899C49.398 18.6113 49.4087 18.606 49.3926 18.5737C49.2959 18.418 50.8159 16.7691 51.4175 16.3662C51.7183 16.1675 52.583 15.7754 52.7441 15.7647C52.7603 15.7647 52.7549 15.8828 52.7334 16.0332ZM49.6343 16.3931C48.4902 17.5801 47.6255 18.8047 45.9712 21.5654C44.6392 23.7891 44.1182 24.5947 43.4844 25.4058C42.915 26.1416 41.9214 27.1192 41.2446 27.6133C40.7666 27.9624 40.627 28.0591 40.0845 28.3975C39.6924 28.6499 38.3335 29.3267 37.5117 29.6919C36.6147 30.0894 35.4653 30.4868 34.853 30.6157C33.7842 30.8413 32.7744 30.9004 32.5005 30.75C32.4522 30.7285 32.5918 30.5996 32.9302 30.3579C34.2783 29.4019 35.1216 28.4512 35.8252 27.1084C36.0078 26.7593 36.1528 26.5498 36.2227 26.5283C36.3999 26.4746 37.4312 25.9483 37.834 25.7012C38.9404 25.0298 39.7944 24.3638 40.6001 23.5527C41.5078 22.6397 42.2813 21.5762 43.0601 20.169L43.4253 19.4976L44.231 18.8369C45.273 17.9776 46.2988 17.2954 47.2334 16.8389C48.082 16.4253 48.4312 16.2964 49.2744 16.0816C50.1606 15.8613 50.1553 15.856 49.6343 16.3931ZM1.39648 16.812C1.42334 16.7905 1.42871 16.812 1.41797 16.855C1.40186 16.8926 1.4126 16.9839 1.43945 17.0591C1.49316 17.188 1.49316 17.188 1.48242 17.0322C1.47705 16.9409 1.50391 16.8657 1.54688 16.8496C1.58984 16.8335 1.60596 16.8496 1.58447 16.8872C1.56299 16.9248 1.57373 16.9356 1.62207 16.9141C1.71875 16.8818 2.1377 17.086 2.64795 17.4136C3.07227 17.6875 4.30762 18.8692 4.25391 18.9497C4.23779 18.9819 4.24316 18.9873 4.27539 18.9712C4.35596 18.9175 5.28516 19.9219 5.23145 20.0078C5.21533 20.0293 5.24756 20.083 5.30127 20.1206C5.38721 20.1904 5.38721 20.1851 5.31738 20.0884C5.27979 20.0293 5.30664 20.0508 5.38721 20.1314C5.4624 20.2173 5.51074 20.3086 5.49463 20.3408C5.47315 20.3784 5.48389 20.3838 5.51611 20.3623C5.5752 20.3247 5.70947 20.5073 5.65576 20.5557C5.64502 20.5718 5.67725 20.6148 5.72559 20.6577C5.8169 20.7276 5.8169 20.7276 5.7417 20.6255C5.66113 20.5181 5.66113 20.5181 5.78467 20.6201C5.84912 20.6792 5.89209 20.7598 5.88135 20.7974C5.86523 20.835 5.88135 20.8779 5.91357 20.8994C5.95117 20.9209 5.95654 20.9155 5.93506 20.8779C5.91357 20.8403 5.9082 20.8135 5.92432 20.8135C5.93506 20.8135 6.20898 21.168 6.53125 21.603C7.30469 22.6504 7.60547 23.0747 7.44434 22.9028C7.33154 22.7739 7.31006 22.7686 7.25098 22.8491C7.21875 22.8975 7.20264 22.9028 7.22412 22.8599C7.25098 22.8008 7.24023 22.7901 7.17578 22.8169C7.12207 22.833 7.08447 22.8277 7.08447 22.7954C7.08447 22.7632 7.06299 22.7525 7.0415 22.7686C7.02002 22.7793 6.96631 22.7739 6.92334 22.7417C6.85889 22.7041 6.85352 22.6934 6.91797 22.6934C6.96631 22.6934 6.93945 22.645 6.85352 22.5645C6.76221 22.4785 6.73535 22.4248 6.77832 22.4087C6.8374 22.3872 6.84815 22.2852 6.82129 22.0381C6.81592 22.0112 6.78369 22.0005 6.75147 22.0112C6.71387 22.0166 6.68701 21.9951 6.69238 21.9575C6.70313 21.9199 6.67627 21.9038 6.63867 21.9199C6.59033 21.936 6.57422 22.0059 6.59033 22.1026C6.61719 22.2744 6.54736 22.312 6.43994 22.1831C6.38623 22.1187 6.38623 22.1026 6.44531 22.0972C6.49902 22.0972 6.5044 22.0864 6.45068 22.065C6.41846 22.0542 6.39697 22.0166 6.41846 21.9898C6.43457 21.9629 6.41846 21.9414 6.3916 21.9414C6.35938 21.9414 6.33252 21.9683 6.33252 22.0059C6.33252 22.0381 6.29492 22.022 6.24658 21.9629C6.16602 21.8662 6.16602 21.8716 6.19287 22.0435L6.2251 22.2261L5.97803 21.9629C5.76856 21.7481 5.69336 21.7051 5.50537 21.6943C5.38721 21.6836 5.27441 21.6782 5.2583 21.6729C5.24219 21.6729 5.26904 21.646 5.31201 21.6192C5.37109 21.5816 5.32275 21.5654 5.13477 21.5654C4.98975 21.5654 4.8877 21.544 4.90381 21.5171C4.94141 21.458 4.8125 21.4043 4.61377 21.4043C4.46338 21.4043 4.21631 21.3023 4.19482 21.2271C4.18945 21.2056 4.18408 21.168 4.18408 21.1411C4.18408 21.1143 4.09815 21.0767 3.99609 21.0606C3.79199 21.023 3.78662 20.8941 3.98535 20.8511C4.04981 20.835 3.97461 20.8242 3.81885 20.8296C3.58789 20.835 3.52344 20.8135 3.45361 20.7168C3.40527 20.647 3.34082 20.6148 3.30859 20.6309C3.271 20.6524 3.26025 20.6524 3.28174 20.6255C3.30322 20.604 3.28174 20.5503 3.23877 20.5073C3.1958 20.4644 3.17432 20.4053 3.19043 20.3784C3.21191 20.3516 3.20117 20.3301 3.16895 20.3301C3.11523 20.3301 3.03467 20.1475 3.0293 20.0239C3.0293 19.9917 2.95947 19.9004 2.87891 19.8252C2.79834 19.75 2.70703 19.6265 2.68018 19.5513C2.65332 19.4761 2.59424 19.417 2.5459 19.417C2.44385 19.417 2.44385 19.4331 2.57813 19.6909C2.63721 19.8145 2.68018 19.9219 2.66406 19.9326C2.62109 19.9756 1.97656 18.5415 2.00342 18.4663C2.01953 18.4234 2.01416 18.4019 1.98731 18.418C1.92285 18.461 1.74561 18.042 1.79395 17.9614C1.8208 17.9238 1.81543 17.9077 1.7832 17.9292C1.75098 17.9507 1.64893 17.7627 1.53613 17.4673C1.375 17.0322 1.22998 16.5864 1.31592 16.7744C1.33203 16.8067 1.36963 16.8281 1.39648 16.812ZM4.56006 16.8389C6.31641 17.0645 8.48633 17.7735 10.4146 18.7456C11.5962 19.3364 11.5103 19.2666 11.8218 19.8735C13.3149 22.7739 15.0981 24.6807 17.5742 26.0181C18.1865 26.3511 18.4712 26.5659 18.4712 26.6895C18.4712 26.813 18.917 27.6724 19.2124 28.1182C19.5508 28.6284 20.6895 29.8101 21.291 30.272L21.6616 30.562L21.2373 30.5996C19.9429 30.7124 18.0952 30.2129 16.1025 29.2193C14.3945 28.3652 13.0732 27.4092 11.7036 26.0288C10.769 25.0943 9.88818 24.0361 8.27686 21.8985C6.61182 19.7017 5.76856 18.6919 4.68897 17.6177C3.97461 16.9087 3.8457 16.7529 3.96387 16.7691C4.03906 16.7744 4.30762 16.8067 4.56006 16.8389ZM2.86279 20.314C2.91113 20.4107 2.93799 20.4912 2.92725 20.4912C2.89502 20.4912 2.73389 20.1958 2.73389 20.1367C2.73389 20.0777 2.76074 20.1206 2.86279 20.314ZM3.20654 21.0015C3.19043 21.0176 3.1582 20.9907 3.14209 20.937C3.10986 20.8618 3.11523 20.8565 3.16895 20.9048C3.20654 20.9424 3.22266 20.9854 3.20654 21.0015ZM47.8296 20.9317C47.8511 20.9693 47.8457 20.9854 47.8242 20.9585C47.7974 20.937 47.7329 20.9854 47.6792 21.0659C47.6255 21.1519 47.5825 21.1948 47.5825 21.1734C47.5825 21.1304 47.7437 20.8672 47.7759 20.8672C47.7813 20.8672 47.8081 20.8994 47.8296 20.9317ZM50.918 21.0444C50.8643 21.0928 50.8589 21.0874 50.8911 21.0122C50.9072 20.9585 50.9395 20.9317 50.9556 20.9478C50.9717 20.9639 50.9556 21.0068 50.918 21.0444ZM3.35156 21.2432C3.3999 21.3291 3.42139 21.4043 3.41065 21.4043C3.39453 21.4043 3.34619 21.3291 3.29785 21.2432C3.24951 21.1519 3.22803 21.082 3.23877 21.082C3.25488 21.082 3.30322 21.1519 3.35156 21.2432ZM4.11426 21.168C4.09815 21.1841 4.04981 21.1895 4.01221 21.1734C3.96924 21.1572 3.98535 21.1411 4.04443 21.1411C4.10352 21.1358 4.13574 21.1519 4.11426 21.168ZM4.92529 21.6568C4.87158 21.6675 4.78565 21.6675 4.73731 21.6568C4.68359 21.6406 4.72656 21.6299 4.82861 21.6299C4.93066 21.6299 4.97363 21.6406 4.92529 21.6568ZM50.2681 22.2637C50.2358 22.3228 50.1982 22.3711 50.1821 22.3711C50.1714 22.3711 50.1821 22.3228 50.2144 22.2637C50.2466 22.2046 50.2842 22.1563 50.3003 22.1563C50.311 22.1563 50.3003 22.2046 50.2681 22.2637ZM6.76221 22.2905C6.81592 22.355 6.81592 22.3711 6.75147 22.3711C6.7085 22.3711 6.6709 22.3335 6.6709 22.2905C6.6709 22.2476 6.67627 22.21 6.68164 22.21C6.69238 22.21 6.72461 22.2476 6.76221 22.2905ZM8.05664 23.6978C8.12647 23.7837 8.12109 23.7891 8.04053 23.7193C7.94922 23.6494 7.92236 23.6065 7.96533 23.6065C7.97608 23.6065 8.01904 23.6494 8.05664 23.6978ZM8.27149 23.9663C8.34131 24.0523 8.33594 24.0576 8.25537 23.9878C8.20166 23.9502 8.15869 23.9072 8.15869 23.8965C8.15869 23.8535 8.20166 23.8804 8.27149 23.9663ZM8.43262 24.1812C8.50244 24.2671 8.49707 24.2725 8.4165 24.2027C8.3252 24.1328 8.29834 24.0899 8.34131 24.0899C8.35205 24.0899 8.39502 24.1328 8.43262 24.1812ZM8.59375 24.396C8.66358 24.4819 8.6582 24.4873 8.57764 24.4175C8.52393 24.3799 8.48096 24.3369 8.48096 24.3262C8.48096 24.2832 8.52393 24.3101 8.59375 24.396ZM9.3457 25.3628C9.41553 25.4487 9.41016 25.4541 9.32959 25.3843C9.27588 25.3467 9.23291 25.3037 9.23291 25.293C9.23291 25.25 9.27588 25.2769 9.3457 25.3628Z" fill="white"/>
</svg>
