<svg width="23" height="10" viewBox="0 0 23 10" fill="none" xmlns="http://www.w3.org/2000/svg">
<path d="M0.767045 9V8.23295L5.47159 1.21023H0.715909V0.272727H6.73295V1.03977L2.02841 8.0625H6.78409V9H0.767045ZM10.3466 9.15341C9.93182 9.15341 9.5554 9.07528 9.21733 8.91903C8.87926 8.75994 8.6108 8.53125 8.41193 8.23295C8.21307 7.93182 8.11364 7.56818 8.11364 7.14205C8.11364 6.76705 8.1875 6.46307 8.33523 6.23011C8.48295 5.99432 8.6804 5.80966 8.92756 5.67614C9.17472 5.54261 9.44744 5.44318 9.74574 5.37784C10.0469 5.30966 10.3494 5.25568 10.6534 5.21591C11.0511 5.16477 11.3736 5.12642 11.6207 5.10085C11.8707 5.07244 12.0526 5.02557 12.1662 4.96023C12.2827 4.89489 12.3409 4.78125 12.3409 4.61932V4.58523C12.3409 4.16477 12.2259 3.83807 11.9957 3.60511C11.7685 3.37216 11.4233 3.25568 10.9602 3.25568C10.4801 3.25568 10.1037 3.3608 9.83097 3.57102C9.55824 3.78125 9.36648 4.00568 9.25568 4.24432L8.30114 3.90341C8.47159 3.50568 8.69886 3.19602 8.98295 2.97443C9.26989 2.75 9.58239 2.59375 9.92045 2.50568C10.2614 2.41477 10.5966 2.36932 10.9261 2.36932C11.1364 2.36932 11.3778 2.39489 11.6506 2.44602C11.9261 2.49432 12.1918 2.59517 12.4474 2.74858C12.706 2.90199 12.9205 3.13352 13.0909 3.44318C13.2614 3.75284 13.3466 4.16761 13.3466 4.6875V9H12.3409V8.11364H12.2898C12.2216 8.25568 12.108 8.40767 11.9489 8.5696C11.7898 8.73153 11.5781 8.86932 11.3139 8.98295C11.0497 9.09659 10.7273 9.15341 10.3466 9.15341ZM10.5 8.25C10.8977 8.25 11.233 8.17188 11.5057 8.01562C11.7813 7.85938 11.9886 7.65767 12.1278 7.41051C12.2699 7.16335 12.3409 6.90341 12.3409 6.63068V5.71023C12.2983 5.76136 12.2045 5.80824 12.0597 5.85085C11.9176 5.89062 11.7528 5.92614 11.5653 5.95739C11.3807 5.9858 11.2003 6.01136 11.0241 6.03409C10.8509 6.05398 10.7102 6.07102 10.6023 6.08523C10.3409 6.11932 10.0966 6.17472 9.86932 6.25142C9.64489 6.32528 9.46307 6.4375 9.32386 6.58807C9.1875 6.7358 9.11932 6.9375 9.11932 7.19318C9.11932 7.54261 9.24858 7.80682 9.5071 7.9858C9.76847 8.16193 10.0994 8.25 10.5 8.25ZM16.1879 0.272727V9H15.1822V0.272727H16.1879ZM18.0298 9V2.45455H19.0355V9H18.0298ZM18.5412 1.36364C18.3452 1.36364 18.1761 1.29688 18.0341 1.16335C17.8949 1.02983 17.8253 0.869318 17.8253 0.681818C17.8253 0.494318 17.8949 0.333807 18.0341 0.200284C18.1761 0.0667613 18.3452 0 18.5412 0C18.7372 0 18.9048 0.0667613 19.044 0.200284C19.1861 0.333807 19.2571 0.494318 19.2571 0.681818C19.2571 0.869318 19.1861 1.02983 19.044 1.16335C18.9048 1.29688 18.7372 1.36364 18.5412 1.36364ZM20.8775 9V2.45455H21.8832V9H20.8775ZM21.3888 1.36364C21.1928 1.36364 21.0238 1.29688 20.8817 1.16335C20.7425 1.02983 20.6729 0.869318 20.6729 0.681818C20.6729 0.494318 20.7425 0.333807 20.8817 0.200284C21.0238 0.0667613 21.1928 0 21.3888 0C21.5849 0 21.7525 0.0667613 21.8917 0.200284C22.0337 0.333807 22.1048 0.494318 22.1048 0.681818C22.1048 0.869318 22.0337 1.02983 21.8917 1.16335C21.7525 1.29688 21.5849 1.36364 21.3888 1.36364Z" fill="white"/>
</svg>
